# xmcd CD database file
#
# Track frame offsets:
#	150
#	14367
#	31490
#	48560
#	62085
#	76277
#	95120
#	112937
#	131100
#	145312
#
# Disc length: 2169 seconds
#
# Revision: 0
# Processed by: cddbd v1.5PL3 Copyright (c) Steve Scherf et al.
# Submitted via: CDex 1.51
#
DISCID=8a08770a
DTITLE=小泉今日子 - 詩色の季節
DYEAR=1995
DGENRE=Pop
TTITLE0=ひとり街角
TTITLE1=白い秋桜
TTITLE2=林檎のきもち
TTITLE3=テレフォン・デート
TTITLE4=オリーブの髪かざり
TTITLE5=詩色の季節の中
TTITLE6=独り遊戯
TTITLE7=涙のびんづめ
TTITLE8=愛色めっせーじ
TTITLE9=Please Love Me
EXTD=YEAR: 1995
EXTT0=
EXTT1=
EXTT2=
EXTT3=
EXTT4=
EXTT5=
EXTT6=
EXTT7=
EXTT8=
EXTT9=
PLAYORDER=
